%TF.GenerationSoftware,KiCad,Pcbnew,9.0.4-9.0.4-0~ubuntu22.04.1*%
%TF.CreationDate,2025-10-27T10:58:52+05:30*%
%TF.ProjectId,Pin_Socket,50696e5f-536f-4636-9b65-742e6b696361,rev?*%
%TF.SameCoordinates,Original*%
%TF.FileFunction,Soldermask,Bot*%
%TF.FilePolarity,Negative*%
%FSLAX46Y46*%
G04 Gerber Fmt 4.6, Leading zero omitted, Abs format (unit mm)*
G04 Created by KiCad (PCBNEW 9.0.4-9.0.4-0~ubuntu22.04.1) date 2025-10-27 10:58:52*
%MOMM*%
%LPD*%
G01*
G04 APERTURE LIST*
G04 Aperture macros list*
%AMRoundRect*
0 Rectangle with rounded corners*
0 $1 Rounding radius*
0 $2 $3 $4 $5 $6 $7 $8 $9 X,Y pos of 4 corners*
0 Add a 4 corners polygon primitive as box body*
4,1,4,$2,$3,$4,$5,$6,$7,$8,$9,$2,$3,0*
0 Add four circle primitives for the rounded corners*
1,1,$1+$1,$2,$3*
1,1,$1+$1,$4,$5*
1,1,$1+$1,$6,$7*
1,1,$1+$1,$8,$9*
0 Add four rect primitives between the rounded corners*
20,1,$1+$1,$2,$3,$4,$5,0*
20,1,$1+$1,$4,$5,$6,$7,0*
20,1,$1+$1,$6,$7,$8,$9,0*
20,1,$1+$1,$8,$9,$2,$3,0*%
G04 Aperture macros list end*
%ADD10C,0.010000*%
%ADD11R,1.700000X1.700000*%
%ADD12C,1.700000*%
%ADD13RoundRect,0.050000X-0.300000X0.150000X-0.300000X-0.150000X0.300000X-0.150000X0.300000X0.150000X0*%
%ADD14RoundRect,0.050000X-0.150000X-0.300000X0.150000X-0.300000X0.150000X0.300000X-0.150000X0.300000X0*%
%ADD15C,1.854000*%
%ADD16RoundRect,0.190500X0.762000X0.444500X-0.762000X0.444500X-0.762000X-0.444500X0.762000X-0.444500X0*%
%ADD17RoundRect,0.190500X0.444500X-0.762000X0.444500X0.762000X-0.444500X0.762000X-0.444500X-0.762000X0*%
G04 APERTURE END LIST*
D10*
%TO.C,D1*%
X155458000Y-69651000D02*
X155460000Y-69651000D01*
X155463000Y-69652000D01*
X155465000Y-69652000D01*
X155468000Y-69653000D01*
X155470000Y-69654000D01*
X155473000Y-69655000D01*
X155475000Y-69657000D01*
X155477000Y-69658000D01*
X155479000Y-69660000D01*
X155481000Y-69661000D01*
X155483000Y-69663000D01*
X155485000Y-69665000D01*
X155487000Y-69667000D01*
X155489000Y-69669000D01*
X155490000Y-69671000D01*
X155492000Y-69673000D01*
X155493000Y-69675000D01*
X155495000Y-69677000D01*
X155496000Y-69680000D01*
X155497000Y-69682000D01*
X155498000Y-69685000D01*
X155498000Y-69687000D01*
X155499000Y-69690000D01*
X155499000Y-69692000D01*
X155500000Y-69695000D01*
X155500000Y-69697000D01*
X155500000Y-69700000D01*
X155500000Y-70300000D01*
X155500000Y-70303000D01*
X155500000Y-70305000D01*
X155499000Y-70308000D01*
X155499000Y-70310000D01*
X155498000Y-70313000D01*
X155498000Y-70315000D01*
X155497000Y-70318000D01*
X155496000Y-70320000D01*
X155495000Y-70323000D01*
X155493000Y-70325000D01*
X155492000Y-70327000D01*
X155490000Y-70329000D01*
X155489000Y-70331000D01*
X155487000Y-70333000D01*
X155485000Y-70335000D01*
X155483000Y-70337000D01*
X155481000Y-70339000D01*
X155479000Y-70340000D01*
X155477000Y-70342000D01*
X155475000Y-70343000D01*
X155473000Y-70345000D01*
X155470000Y-70346000D01*
X155468000Y-70347000D01*
X155465000Y-70348000D01*
X155463000Y-70348000D01*
X155460000Y-70349000D01*
X155458000Y-70349000D01*
X155455000Y-70350000D01*
X155453000Y-70350000D01*
X155450000Y-70350000D01*
X155150000Y-70350000D01*
X155147000Y-70350000D01*
X155145000Y-70350000D01*
X155142000Y-70349000D01*
X155140000Y-70349000D01*
X155137000Y-70348000D01*
X155135000Y-70348000D01*
X155132000Y-70347000D01*
X155130000Y-70346000D01*
X155127000Y-70345000D01*
X155125000Y-70343000D01*
X155123000Y-70342000D01*
X155121000Y-70340000D01*
X155119000Y-70339000D01*
X155117000Y-70337000D01*
X155115000Y-70335000D01*
X155113000Y-70333000D01*
X155111000Y-70331000D01*
X155110000Y-70329000D01*
X155108000Y-70327000D01*
X155107000Y-70325000D01*
X155105000Y-70323000D01*
X155104000Y-70320000D01*
X155103000Y-70318000D01*
X155102000Y-70315000D01*
X155102000Y-70313000D01*
X155101000Y-70310000D01*
X155101000Y-70308000D01*
X155100000Y-70305000D01*
X155100000Y-70303000D01*
X155100000Y-70300000D01*
X155100000Y-69700000D01*
X155100000Y-69697000D01*
X155100000Y-69695000D01*
X155101000Y-69692000D01*
X155101000Y-69690000D01*
X155102000Y-69687000D01*
X155102000Y-69685000D01*
X155103000Y-69682000D01*
X155104000Y-69680000D01*
X155105000Y-69677000D01*
X155107000Y-69675000D01*
X155108000Y-69673000D01*
X155110000Y-69671000D01*
X155111000Y-69669000D01*
X155113000Y-69667000D01*
X155115000Y-69665000D01*
X155117000Y-69663000D01*
X155119000Y-69661000D01*
X155121000Y-69660000D01*
X155123000Y-69658000D01*
X155125000Y-69657000D01*
X155127000Y-69655000D01*
X155130000Y-69654000D01*
X155132000Y-69653000D01*
X155135000Y-69652000D01*
X155137000Y-69652000D01*
X155140000Y-69651000D01*
X155142000Y-69651000D01*
X155145000Y-69650000D01*
X155147000Y-69650000D01*
X155150000Y-69650000D01*
X155450000Y-69650000D01*
X155453000Y-69650000D01*
X155455000Y-69650000D01*
X155458000Y-69651000D01*
G36*
X155458000Y-69651000D02*
G01*
X155460000Y-69651000D01*
X155463000Y-69652000D01*
X155465000Y-69652000D01*
X155468000Y-69653000D01*
X155470000Y-69654000D01*
X155473000Y-69655000D01*
X155475000Y-69657000D01*
X155477000Y-69658000D01*
X155479000Y-69660000D01*
X155481000Y-69661000D01*
X155483000Y-69663000D01*
X155485000Y-69665000D01*
X155487000Y-69667000D01*
X155489000Y-69669000D01*
X155490000Y-69671000D01*
X155492000Y-69673000D01*
X155493000Y-69675000D01*
X155495000Y-69677000D01*
X155496000Y-69680000D01*
X155497000Y-69682000D01*
X155498000Y-69685000D01*
X155498000Y-69687000D01*
X155499000Y-69690000D01*
X155499000Y-69692000D01*
X155500000Y-69695000D01*
X155500000Y-69697000D01*
X155500000Y-69700000D01*
X155500000Y-70300000D01*
X155500000Y-70303000D01*
X155500000Y-70305000D01*
X155499000Y-70308000D01*
X155499000Y-70310000D01*
X155498000Y-70313000D01*
X155498000Y-70315000D01*
X155497000Y-70318000D01*
X155496000Y-70320000D01*
X155495000Y-70323000D01*
X155493000Y-70325000D01*
X155492000Y-70327000D01*
X155490000Y-70329000D01*
X155489000Y-70331000D01*
X155487000Y-70333000D01*
X155485000Y-70335000D01*
X155483000Y-70337000D01*
X155481000Y-70339000D01*
X155479000Y-70340000D01*
X155477000Y-70342000D01*
X155475000Y-70343000D01*
X155473000Y-70345000D01*
X155470000Y-70346000D01*
X155468000Y-70347000D01*
X155465000Y-70348000D01*
X155463000Y-70348000D01*
X155460000Y-70349000D01*
X155458000Y-70349000D01*
X155455000Y-70350000D01*
X155453000Y-70350000D01*
X155450000Y-70350000D01*
X155150000Y-70350000D01*
X155147000Y-70350000D01*
X155145000Y-70350000D01*
X155142000Y-70349000D01*
X155140000Y-70349000D01*
X155137000Y-70348000D01*
X155135000Y-70348000D01*
X155132000Y-70347000D01*
X155130000Y-70346000D01*
X155127000Y-70345000D01*
X155125000Y-70343000D01*
X155123000Y-70342000D01*
X155121000Y-70340000D01*
X155119000Y-70339000D01*
X155117000Y-70337000D01*
X155115000Y-70335000D01*
X155113000Y-70333000D01*
X155111000Y-70331000D01*
X155110000Y-70329000D01*
X155108000Y-70327000D01*
X155107000Y-70325000D01*
X155105000Y-70323000D01*
X155104000Y-70320000D01*
X155103000Y-70318000D01*
X155102000Y-70315000D01*
X155102000Y-70313000D01*
X155101000Y-70310000D01*
X155101000Y-70308000D01*
X155100000Y-70305000D01*
X155100000Y-70303000D01*
X155100000Y-70300000D01*
X155100000Y-69700000D01*
X155100000Y-69697000D01*
X155100000Y-69695000D01*
X155101000Y-69692000D01*
X155101000Y-69690000D01*
X155102000Y-69687000D01*
X155102000Y-69685000D01*
X155103000Y-69682000D01*
X155104000Y-69680000D01*
X155105000Y-69677000D01*
X155107000Y-69675000D01*
X155108000Y-69673000D01*
X155110000Y-69671000D01*
X155111000Y-69669000D01*
X155113000Y-69667000D01*
X155115000Y-69665000D01*
X155117000Y-69663000D01*
X155119000Y-69661000D01*
X155121000Y-69660000D01*
X155123000Y-69658000D01*
X155125000Y-69657000D01*
X155127000Y-69655000D01*
X155130000Y-69654000D01*
X155132000Y-69653000D01*
X155135000Y-69652000D01*
X155137000Y-69652000D01*
X155140000Y-69651000D01*
X155142000Y-69651000D01*
X155145000Y-69650000D01*
X155147000Y-69650000D01*
X155150000Y-69650000D01*
X155450000Y-69650000D01*
X155453000Y-69650000D01*
X155455000Y-69650000D01*
X155458000Y-69651000D01*
G37*
X156158000Y-69651000D02*
X156160000Y-69651000D01*
X156163000Y-69652000D01*
X156165000Y-69652000D01*
X156168000Y-69653000D01*
X156170000Y-69654000D01*
X156173000Y-69655000D01*
X156175000Y-69657000D01*
X156177000Y-69658000D01*
X156179000Y-69660000D01*
X156181000Y-69661000D01*
X156183000Y-69663000D01*
X156185000Y-69665000D01*
X156187000Y-69667000D01*
X156189000Y-69669000D01*
X156190000Y-69671000D01*
X156192000Y-69673000D01*
X156193000Y-69675000D01*
X156195000Y-69677000D01*
X156196000Y-69680000D01*
X156197000Y-69682000D01*
X156198000Y-69685000D01*
X156198000Y-69687000D01*
X156199000Y-69690000D01*
X156199000Y-69692000D01*
X156200000Y-69695000D01*
X156200000Y-69697000D01*
X156200000Y-69700000D01*
X156200000Y-70300000D01*
X156200000Y-70303000D01*
X156200000Y-70305000D01*
X156199000Y-70308000D01*
X156199000Y-70310000D01*
X156198000Y-70313000D01*
X156198000Y-70315000D01*
X156197000Y-70318000D01*
X156196000Y-70320000D01*
X156195000Y-70323000D01*
X156193000Y-70325000D01*
X156192000Y-70327000D01*
X156190000Y-70329000D01*
X156189000Y-70331000D01*
X156187000Y-70333000D01*
X156185000Y-70335000D01*
X156183000Y-70337000D01*
X156181000Y-70339000D01*
X156179000Y-70340000D01*
X156177000Y-70342000D01*
X156175000Y-70343000D01*
X156173000Y-70345000D01*
X156170000Y-70346000D01*
X156168000Y-70347000D01*
X156165000Y-70348000D01*
X156163000Y-70348000D01*
X156160000Y-70349000D01*
X156158000Y-70349000D01*
X156155000Y-70350000D01*
X156153000Y-70350000D01*
X156150000Y-70350000D01*
X155850000Y-70350000D01*
X155847000Y-70350000D01*
X155845000Y-70350000D01*
X155842000Y-70349000D01*
X155840000Y-70349000D01*
X155837000Y-70348000D01*
X155835000Y-70348000D01*
X155832000Y-70347000D01*
X155830000Y-70346000D01*
X155827000Y-70345000D01*
X155825000Y-70343000D01*
X155823000Y-70342000D01*
X155821000Y-70340000D01*
X155819000Y-70339000D01*
X155817000Y-70337000D01*
X155815000Y-70335000D01*
X155813000Y-70333000D01*
X155811000Y-70331000D01*
X155810000Y-70329000D01*
X155808000Y-70327000D01*
X155807000Y-70325000D01*
X155805000Y-70323000D01*
X155804000Y-70320000D01*
X155803000Y-70318000D01*
X155802000Y-70315000D01*
X155802000Y-70313000D01*
X155801000Y-70310000D01*
X155801000Y-70308000D01*
X155800000Y-70305000D01*
X155800000Y-70303000D01*
X155800000Y-70300000D01*
X155800000Y-69700000D01*
X155800000Y-69697000D01*
X155800000Y-69695000D01*
X155801000Y-69692000D01*
X155801000Y-69690000D01*
X155802000Y-69687000D01*
X155802000Y-69685000D01*
X155803000Y-69682000D01*
X155804000Y-69680000D01*
X155805000Y-69677000D01*
X155807000Y-69675000D01*
X155808000Y-69673000D01*
X155810000Y-69671000D01*
X155811000Y-69669000D01*
X155813000Y-69667000D01*
X155815000Y-69665000D01*
X155817000Y-69663000D01*
X155819000Y-69661000D01*
X155821000Y-69660000D01*
X155823000Y-69658000D01*
X155825000Y-69657000D01*
X155827000Y-69655000D01*
X155830000Y-69654000D01*
X155832000Y-69653000D01*
X155835000Y-69652000D01*
X155837000Y-69652000D01*
X155840000Y-69651000D01*
X155842000Y-69651000D01*
X155845000Y-69650000D01*
X155847000Y-69650000D01*
X155850000Y-69650000D01*
X156150000Y-69650000D01*
X156153000Y-69650000D01*
X156155000Y-69650000D01*
X156158000Y-69651000D01*
G36*
X156158000Y-69651000D02*
G01*
X156160000Y-69651000D01*
X156163000Y-69652000D01*
X156165000Y-69652000D01*
X156168000Y-69653000D01*
X156170000Y-69654000D01*
X156173000Y-69655000D01*
X156175000Y-69657000D01*
X156177000Y-69658000D01*
X156179000Y-69660000D01*
X156181000Y-69661000D01*
X156183000Y-69663000D01*
X156185000Y-69665000D01*
X156187000Y-69667000D01*
X156189000Y-69669000D01*
X156190000Y-69671000D01*
X156192000Y-69673000D01*
X156193000Y-69675000D01*
X156195000Y-69677000D01*
X156196000Y-69680000D01*
X156197000Y-69682000D01*
X156198000Y-69685000D01*
X156198000Y-69687000D01*
X156199000Y-69690000D01*
X156199000Y-69692000D01*
X156200000Y-69695000D01*
X156200000Y-69697000D01*
X156200000Y-69700000D01*
X156200000Y-70300000D01*
X156200000Y-70303000D01*
X156200000Y-70305000D01*
X156199000Y-70308000D01*
X156199000Y-70310000D01*
X156198000Y-70313000D01*
X156198000Y-70315000D01*
X156197000Y-70318000D01*
X156196000Y-70320000D01*
X156195000Y-70323000D01*
X156193000Y-70325000D01*
X156192000Y-70327000D01*
X156190000Y-70329000D01*
X156189000Y-70331000D01*
X156187000Y-70333000D01*
X156185000Y-70335000D01*
X156183000Y-70337000D01*
X156181000Y-70339000D01*
X156179000Y-70340000D01*
X156177000Y-70342000D01*
X156175000Y-70343000D01*
X156173000Y-70345000D01*
X156170000Y-70346000D01*
X156168000Y-70347000D01*
X156165000Y-70348000D01*
X156163000Y-70348000D01*
X156160000Y-70349000D01*
X156158000Y-70349000D01*
X156155000Y-70350000D01*
X156153000Y-70350000D01*
X156150000Y-70350000D01*
X155850000Y-70350000D01*
X155847000Y-70350000D01*
X155845000Y-70350000D01*
X155842000Y-70349000D01*
X155840000Y-70349000D01*
X155837000Y-70348000D01*
X155835000Y-70348000D01*
X155832000Y-70347000D01*
X155830000Y-70346000D01*
X155827000Y-70345000D01*
X155825000Y-70343000D01*
X155823000Y-70342000D01*
X155821000Y-70340000D01*
X155819000Y-70339000D01*
X155817000Y-70337000D01*
X155815000Y-70335000D01*
X155813000Y-70333000D01*
X155811000Y-70331000D01*
X155810000Y-70329000D01*
X155808000Y-70327000D01*
X155807000Y-70325000D01*
X155805000Y-70323000D01*
X155804000Y-70320000D01*
X155803000Y-70318000D01*
X155802000Y-70315000D01*
X155802000Y-70313000D01*
X155801000Y-70310000D01*
X155801000Y-70308000D01*
X155800000Y-70305000D01*
X155800000Y-70303000D01*
X155800000Y-70300000D01*
X155800000Y-69700000D01*
X155800000Y-69697000D01*
X155800000Y-69695000D01*
X155801000Y-69692000D01*
X155801000Y-69690000D01*
X155802000Y-69687000D01*
X155802000Y-69685000D01*
X155803000Y-69682000D01*
X155804000Y-69680000D01*
X155805000Y-69677000D01*
X155807000Y-69675000D01*
X155808000Y-69673000D01*
X155810000Y-69671000D01*
X155811000Y-69669000D01*
X155813000Y-69667000D01*
X155815000Y-69665000D01*
X155817000Y-69663000D01*
X155819000Y-69661000D01*
X155821000Y-69660000D01*
X155823000Y-69658000D01*
X155825000Y-69657000D01*
X155827000Y-69655000D01*
X155830000Y-69654000D01*
X155832000Y-69653000D01*
X155835000Y-69652000D01*
X155837000Y-69652000D01*
X155840000Y-69651000D01*
X155842000Y-69651000D01*
X155845000Y-69650000D01*
X155847000Y-69650000D01*
X155850000Y-69650000D01*
X156150000Y-69650000D01*
X156153000Y-69650000D01*
X156155000Y-69650000D01*
X156158000Y-69651000D01*
G37*
%TD*%
D11*
%TO.C,J1*%
X133770000Y-65294200D03*
D12*
X131230000Y-65294200D03*
X133770000Y-67834200D03*
X131230000Y-67834200D03*
X133770000Y-70374200D03*
X131230000Y-70374200D03*
X133770000Y-72914200D03*
X131230000Y-72914200D03*
X133770000Y-75454200D03*
X131230000Y-75454200D03*
X133770000Y-77994200D03*
X131230000Y-77994200D03*
X133770000Y-80534200D03*
X131230000Y-80534200D03*
X133770000Y-83074200D03*
X131230000Y-83074200D03*
X133770000Y-85614200D03*
X131230000Y-85614200D03*
X133770000Y-88154200D03*
X131230000Y-88154200D03*
X133770000Y-90694200D03*
X131230000Y-90694200D03*
X133770000Y-93234200D03*
X131230000Y-93234200D03*
X133770000Y-95774200D03*
X131230000Y-95774200D03*
X133770000Y-98314200D03*
X131230000Y-98314200D03*
X133770000Y-100854200D03*
X131230000Y-100854200D03*
X133770000Y-103394200D03*
X131230000Y-103394200D03*
X133770000Y-105934200D03*
X131230000Y-105934200D03*
X133770000Y-108474200D03*
X131230000Y-108474200D03*
X133770000Y-111014200D03*
X131230000Y-111014200D03*
X133770000Y-113554200D03*
X131230000Y-113554200D03*
%TD*%
D13*
%TO.C,D2*%
X150000000Y-69500000D03*
X150000000Y-70200000D03*
%TD*%
D14*
%TO.C,D3*%
X143650000Y-70000000D03*
X144350000Y-70000000D03*
%TD*%
D15*
%TO.C,J3*%
X159430000Y-67054200D03*
X156890000Y-67054200D03*
X154350000Y-67054200D03*
X151810000Y-67054200D03*
X149270000Y-67054200D03*
X146730000Y-67054200D03*
X144190000Y-67054200D03*
X141650000Y-67054200D03*
X139110000Y-67054200D03*
%TD*%
D16*
%TO.C,J5*%
X164270050Y-66554177D03*
X164270050Y-69054177D03*
%TD*%
D14*
%TO.C,D4*%
X145800000Y-70000000D03*
X146500000Y-70000000D03*
%TD*%
D17*
%TO.C,J2*%
X158500000Y-73000000D03*
X156000000Y-73000000D03*
X153500000Y-73000000D03*
%TD*%
%TO.C,J4*%
X150000000Y-72500000D03*
X147500000Y-72500000D03*
X145000000Y-72500000D03*
X142500000Y-72500000D03*
X140000000Y-72500000D03*
%TD*%
M02*
