%TF.GenerationSoftware,KiCad,Pcbnew,9.0.4-9.0.4-0~ubuntu22.04.1*%
%TF.CreationDate,2025-10-27T10:58:52+05:30*%
%TF.ProjectId,Pin_Socket,50696e5f-536f-4636-9b65-742e6b696361,rev?*%
%TF.SameCoordinates,Original*%
%TF.FileFunction,Legend,Bot*%
%TF.FilePolarity,Positive*%
%FSLAX46Y46*%
G04 Gerber Fmt 4.6, Leading zero omitted, Abs format (unit mm)*
G04 Created by KiCad (PCBNEW 9.0.4-9.0.4-0~ubuntu22.04.1) date 2025-10-27 10:58:52*
%MOMM*%
%LPD*%
G01*
G04 APERTURE LIST*
%ADD10C,0.150000*%
%ADD11C,0.125000*%
%ADD12C,0.100000*%
%ADD13C,0.120000*%
%ADD14C,0.000000*%
%ADD15C,0.200000*%
G04 APERTURE END LIST*
D10*
X159909411Y-69924019D02*
X160480839Y-69924019D01*
X160195125Y-69924019D02*
X160195125Y-68924019D01*
X160195125Y-68924019D02*
X160290363Y-69066876D01*
X160290363Y-69066876D02*
X160385601Y-69162114D01*
X160385601Y-69162114D02*
X160480839Y-69209733D01*
D11*
X150298716Y-74607640D02*
X150298716Y-73807640D01*
X150298716Y-73807640D02*
X150108240Y-73807640D01*
X150108240Y-73807640D02*
X150060621Y-73845735D01*
X150060621Y-73845735D02*
X150036811Y-73883830D01*
X150036811Y-73883830D02*
X150013002Y-73960021D01*
X150013002Y-73960021D02*
X150013002Y-74074306D01*
X150013002Y-74074306D02*
X150036811Y-74150497D01*
X150036811Y-74150497D02*
X150060621Y-74188592D01*
X150060621Y-74188592D02*
X150108240Y-74226687D01*
X150108240Y-74226687D02*
X150298716Y-74226687D01*
X149798716Y-74607640D02*
X149798716Y-74074306D01*
X149798716Y-74226687D02*
X149774906Y-74150497D01*
X149774906Y-74150497D02*
X149751097Y-74112402D01*
X149751097Y-74112402D02*
X149703478Y-74074306D01*
X149703478Y-74074306D02*
X149655859Y-74074306D01*
X149417763Y-74607640D02*
X149465382Y-74569545D01*
X149465382Y-74569545D02*
X149489192Y-74531449D01*
X149489192Y-74531449D02*
X149513001Y-74455259D01*
X149513001Y-74455259D02*
X149513001Y-74226687D01*
X149513001Y-74226687D02*
X149489192Y-74150497D01*
X149489192Y-74150497D02*
X149465382Y-74112402D01*
X149465382Y-74112402D02*
X149417763Y-74074306D01*
X149417763Y-74074306D02*
X149346335Y-74074306D01*
X149346335Y-74074306D02*
X149298716Y-74112402D01*
X149298716Y-74112402D02*
X149274906Y-74150497D01*
X149274906Y-74150497D02*
X149251097Y-74226687D01*
X149251097Y-74226687D02*
X149251097Y-74455259D01*
X149251097Y-74455259D02*
X149274906Y-74531449D01*
X149274906Y-74531449D02*
X149298716Y-74569545D01*
X149298716Y-74569545D02*
X149346335Y-74607640D01*
X149346335Y-74607640D02*
X149417763Y-74607640D01*
X149084430Y-74607640D02*
X148822525Y-74074306D01*
X149084430Y-74074306D02*
X148822525Y-74607640D01*
X148632049Y-74607640D02*
X148632049Y-74074306D01*
X148632049Y-73807640D02*
X148655858Y-73845735D01*
X148655858Y-73845735D02*
X148632049Y-73883830D01*
X148632049Y-73883830D02*
X148608239Y-73845735D01*
X148608239Y-73845735D02*
X148632049Y-73807640D01*
X148632049Y-73807640D02*
X148632049Y-73883830D01*
X148393954Y-74607640D02*
X148393954Y-74074306D01*
X148393954Y-74150497D02*
X148370144Y-74112402D01*
X148370144Y-74112402D02*
X148322525Y-74074306D01*
X148322525Y-74074306D02*
X148251097Y-74074306D01*
X148251097Y-74074306D02*
X148203478Y-74112402D01*
X148203478Y-74112402D02*
X148179668Y-74188592D01*
X148179668Y-74188592D02*
X148179668Y-74607640D01*
X148179668Y-74188592D02*
X148155859Y-74112402D01*
X148155859Y-74112402D02*
X148108240Y-74074306D01*
X148108240Y-74074306D02*
X148036811Y-74074306D01*
X148036811Y-74074306D02*
X147989192Y-74112402D01*
X147989192Y-74112402D02*
X147965382Y-74188592D01*
X147965382Y-74188592D02*
X147965382Y-74607640D01*
X147727287Y-74607640D02*
X147727287Y-74074306D01*
X147727287Y-73807640D02*
X147751096Y-73845735D01*
X147751096Y-73845735D02*
X147727287Y-73883830D01*
X147727287Y-73883830D02*
X147703477Y-73845735D01*
X147703477Y-73845735D02*
X147727287Y-73807640D01*
X147727287Y-73807640D02*
X147727287Y-73883830D01*
X147560620Y-74074306D02*
X147370144Y-74074306D01*
X147489192Y-73807640D02*
X147489192Y-74493354D01*
X147489192Y-74493354D02*
X147465382Y-74569545D01*
X147465382Y-74569545D02*
X147417763Y-74607640D01*
X147417763Y-74607640D02*
X147370144Y-74607640D01*
X147251097Y-74074306D02*
X147132049Y-74607640D01*
X147013002Y-74074306D02*
X147132049Y-74607640D01*
X147132049Y-74607640D02*
X147179668Y-74798116D01*
X147179668Y-74798116D02*
X147203478Y-74836211D01*
X147203478Y-74836211D02*
X147251097Y-74874306D01*
X150322525Y-75857500D02*
X150251097Y-75895595D01*
X150251097Y-75895595D02*
X150132049Y-75895595D01*
X150132049Y-75895595D02*
X150084430Y-75857500D01*
X150084430Y-75857500D02*
X150060621Y-75819404D01*
X150060621Y-75819404D02*
X150036811Y-75743214D01*
X150036811Y-75743214D02*
X150036811Y-75667023D01*
X150036811Y-75667023D02*
X150060621Y-75590833D01*
X150060621Y-75590833D02*
X150084430Y-75552738D01*
X150084430Y-75552738D02*
X150132049Y-75514642D01*
X150132049Y-75514642D02*
X150227287Y-75476547D01*
X150227287Y-75476547D02*
X150274906Y-75438452D01*
X150274906Y-75438452D02*
X150298716Y-75400357D01*
X150298716Y-75400357D02*
X150322525Y-75324166D01*
X150322525Y-75324166D02*
X150322525Y-75247976D01*
X150322525Y-75247976D02*
X150298716Y-75171785D01*
X150298716Y-75171785D02*
X150274906Y-75133690D01*
X150274906Y-75133690D02*
X150227287Y-75095595D01*
X150227287Y-75095595D02*
X150108240Y-75095595D01*
X150108240Y-75095595D02*
X150036811Y-75133690D01*
X149632050Y-75857500D02*
X149679669Y-75895595D01*
X149679669Y-75895595D02*
X149774907Y-75895595D01*
X149774907Y-75895595D02*
X149822526Y-75857500D01*
X149822526Y-75857500D02*
X149846335Y-75781309D01*
X149846335Y-75781309D02*
X149846335Y-75476547D01*
X149846335Y-75476547D02*
X149822526Y-75400357D01*
X149822526Y-75400357D02*
X149774907Y-75362261D01*
X149774907Y-75362261D02*
X149679669Y-75362261D01*
X149679669Y-75362261D02*
X149632050Y-75400357D01*
X149632050Y-75400357D02*
X149608240Y-75476547D01*
X149608240Y-75476547D02*
X149608240Y-75552738D01*
X149608240Y-75552738D02*
X149846335Y-75628928D01*
X149393955Y-75362261D02*
X149393955Y-75895595D01*
X149393955Y-75438452D02*
X149370145Y-75400357D01*
X149370145Y-75400357D02*
X149322526Y-75362261D01*
X149322526Y-75362261D02*
X149251098Y-75362261D01*
X149251098Y-75362261D02*
X149203479Y-75400357D01*
X149203479Y-75400357D02*
X149179669Y-75476547D01*
X149179669Y-75476547D02*
X149179669Y-75895595D01*
X148965383Y-75857500D02*
X148917764Y-75895595D01*
X148917764Y-75895595D02*
X148822526Y-75895595D01*
X148822526Y-75895595D02*
X148774907Y-75857500D01*
X148774907Y-75857500D02*
X148751098Y-75781309D01*
X148751098Y-75781309D02*
X148751098Y-75743214D01*
X148751098Y-75743214D02*
X148774907Y-75667023D01*
X148774907Y-75667023D02*
X148822526Y-75628928D01*
X148822526Y-75628928D02*
X148893955Y-75628928D01*
X148893955Y-75628928D02*
X148941574Y-75590833D01*
X148941574Y-75590833D02*
X148965383Y-75514642D01*
X148965383Y-75514642D02*
X148965383Y-75476547D01*
X148965383Y-75476547D02*
X148941574Y-75400357D01*
X148941574Y-75400357D02*
X148893955Y-75362261D01*
X148893955Y-75362261D02*
X148822526Y-75362261D01*
X148822526Y-75362261D02*
X148774907Y-75400357D01*
X148465383Y-75895595D02*
X148513002Y-75857500D01*
X148513002Y-75857500D02*
X148536812Y-75819404D01*
X148536812Y-75819404D02*
X148560621Y-75743214D01*
X148560621Y-75743214D02*
X148560621Y-75514642D01*
X148560621Y-75514642D02*
X148536812Y-75438452D01*
X148536812Y-75438452D02*
X148513002Y-75400357D01*
X148513002Y-75400357D02*
X148465383Y-75362261D01*
X148465383Y-75362261D02*
X148393955Y-75362261D01*
X148393955Y-75362261D02*
X148346336Y-75400357D01*
X148346336Y-75400357D02*
X148322526Y-75438452D01*
X148322526Y-75438452D02*
X148298717Y-75514642D01*
X148298717Y-75514642D02*
X148298717Y-75743214D01*
X148298717Y-75743214D02*
X148322526Y-75819404D01*
X148322526Y-75819404D02*
X148346336Y-75857500D01*
X148346336Y-75857500D02*
X148393955Y-75895595D01*
X148393955Y-75895595D02*
X148465383Y-75895595D01*
X148084431Y-75895595D02*
X148084431Y-75362261D01*
X148084431Y-75514642D02*
X148060621Y-75438452D01*
X148060621Y-75438452D02*
X148036812Y-75400357D01*
X148036812Y-75400357D02*
X147989193Y-75362261D01*
X147989193Y-75362261D02*
X147941574Y-75362261D01*
D10*
X151954819Y-69261905D02*
X150954819Y-69261905D01*
X150954819Y-69261905D02*
X150954819Y-69500000D01*
X150954819Y-69500000D02*
X151002438Y-69642857D01*
X151002438Y-69642857D02*
X151097676Y-69738095D01*
X151097676Y-69738095D02*
X151192914Y-69785714D01*
X151192914Y-69785714D02*
X151383390Y-69833333D01*
X151383390Y-69833333D02*
X151526247Y-69833333D01*
X151526247Y-69833333D02*
X151716723Y-69785714D01*
X151716723Y-69785714D02*
X151811961Y-69738095D01*
X151811961Y-69738095D02*
X151907200Y-69642857D01*
X151907200Y-69642857D02*
X151954819Y-69500000D01*
X151954819Y-69500000D02*
X151954819Y-69261905D01*
X151050057Y-70214286D02*
X151002438Y-70261905D01*
X151002438Y-70261905D02*
X150954819Y-70357143D01*
X150954819Y-70357143D02*
X150954819Y-70595238D01*
X150954819Y-70595238D02*
X151002438Y-70690476D01*
X151002438Y-70690476D02*
X151050057Y-70738095D01*
X151050057Y-70738095D02*
X151145295Y-70785714D01*
X151145295Y-70785714D02*
X151240533Y-70785714D01*
X151240533Y-70785714D02*
X151383390Y-70738095D01*
X151383390Y-70738095D02*
X151954819Y-70166667D01*
X151954819Y-70166667D02*
X151954819Y-70785714D01*
X142909385Y-70460581D02*
X142909385Y-69460581D01*
X142909385Y-69460581D02*
X142671290Y-69460581D01*
X142671290Y-69460581D02*
X142528433Y-69508200D01*
X142528433Y-69508200D02*
X142433195Y-69603438D01*
X142433195Y-69603438D02*
X142385576Y-69698676D01*
X142385576Y-69698676D02*
X142337957Y-69889152D01*
X142337957Y-69889152D02*
X142337957Y-70032009D01*
X142337957Y-70032009D02*
X142385576Y-70222485D01*
X142385576Y-70222485D02*
X142433195Y-70317723D01*
X142433195Y-70317723D02*
X142528433Y-70412962D01*
X142528433Y-70412962D02*
X142671290Y-70460581D01*
X142671290Y-70460581D02*
X142909385Y-70460581D01*
X142004623Y-69460581D02*
X141385576Y-69460581D01*
X141385576Y-69460581D02*
X141718909Y-69841533D01*
X141718909Y-69841533D02*
X141576052Y-69841533D01*
X141576052Y-69841533D02*
X141480814Y-69889152D01*
X141480814Y-69889152D02*
X141433195Y-69936771D01*
X141433195Y-69936771D02*
X141385576Y-70032009D01*
X141385576Y-70032009D02*
X141385576Y-70270104D01*
X141385576Y-70270104D02*
X141433195Y-70365342D01*
X141433195Y-70365342D02*
X141480814Y-70412962D01*
X141480814Y-70412962D02*
X141576052Y-70460581D01*
X141576052Y-70460581D02*
X141861766Y-70460581D01*
X141861766Y-70460581D02*
X141957004Y-70412962D01*
X141957004Y-70412962D02*
X142004623Y-70365342D01*
X160933255Y-65233464D02*
X160933255Y-64433464D01*
X160933255Y-64433464D02*
X160719921Y-65004892D01*
X160719921Y-65004892D02*
X160506588Y-64433464D01*
X160506588Y-64433464D02*
X160506588Y-65233464D01*
X159958016Y-65195369D02*
X160018968Y-65233464D01*
X160018968Y-65233464D02*
X160140873Y-65233464D01*
X160140873Y-65233464D02*
X160201826Y-65195369D01*
X160201826Y-65195369D02*
X160232302Y-65119178D01*
X160232302Y-65119178D02*
X160232302Y-64814416D01*
X160232302Y-64814416D02*
X160201826Y-64738226D01*
X160201826Y-64738226D02*
X160140873Y-64700130D01*
X160140873Y-64700130D02*
X160018968Y-64700130D01*
X160018968Y-64700130D02*
X159958016Y-64738226D01*
X159958016Y-64738226D02*
X159927540Y-64814416D01*
X159927540Y-64814416D02*
X159927540Y-64890607D01*
X159927540Y-64890607D02*
X160232302Y-64966797D01*
X159653255Y-65233464D02*
X159653255Y-64700130D01*
X159653255Y-64776321D02*
X159622778Y-64738226D01*
X159622778Y-64738226D02*
X159561826Y-64700130D01*
X159561826Y-64700130D02*
X159470397Y-64700130D01*
X159470397Y-64700130D02*
X159409445Y-64738226D01*
X159409445Y-64738226D02*
X159378969Y-64814416D01*
X159378969Y-64814416D02*
X159378969Y-65233464D01*
X159378969Y-64814416D02*
X159348493Y-64738226D01*
X159348493Y-64738226D02*
X159287540Y-64700130D01*
X159287540Y-64700130D02*
X159196112Y-64700130D01*
X159196112Y-64700130D02*
X159135159Y-64738226D01*
X159135159Y-64738226D02*
X159104683Y-64814416D01*
X159104683Y-64814416D02*
X159104683Y-65233464D01*
X158799922Y-65233464D02*
X158799922Y-64433464D01*
X158799922Y-64738226D02*
X158738969Y-64700130D01*
X158738969Y-64700130D02*
X158617064Y-64700130D01*
X158617064Y-64700130D02*
X158556112Y-64738226D01*
X158556112Y-64738226D02*
X158525636Y-64776321D01*
X158525636Y-64776321D02*
X158495160Y-64852511D01*
X158495160Y-64852511D02*
X158495160Y-65081083D01*
X158495160Y-65081083D02*
X158525636Y-65157273D01*
X158525636Y-65157273D02*
X158556112Y-65195369D01*
X158556112Y-65195369D02*
X158617064Y-65233464D01*
X158617064Y-65233464D02*
X158738969Y-65233464D01*
X158738969Y-65233464D02*
X158799922Y-65195369D01*
X158220874Y-65233464D02*
X158220874Y-64700130D01*
X158220874Y-64852511D02*
X158190397Y-64776321D01*
X158190397Y-64776321D02*
X158159921Y-64738226D01*
X158159921Y-64738226D02*
X158098969Y-64700130D01*
X158098969Y-64700130D02*
X158038016Y-64700130D01*
X157550398Y-65233464D02*
X157550398Y-64814416D01*
X157550398Y-64814416D02*
X157580874Y-64738226D01*
X157580874Y-64738226D02*
X157641826Y-64700130D01*
X157641826Y-64700130D02*
X157763731Y-64700130D01*
X157763731Y-64700130D02*
X157824684Y-64738226D01*
X157550398Y-65195369D02*
X157611350Y-65233464D01*
X157611350Y-65233464D02*
X157763731Y-65233464D01*
X157763731Y-65233464D02*
X157824684Y-65195369D01*
X157824684Y-65195369D02*
X157855160Y-65119178D01*
X157855160Y-65119178D02*
X157855160Y-65042988D01*
X157855160Y-65042988D02*
X157824684Y-64966797D01*
X157824684Y-64966797D02*
X157763731Y-64928702D01*
X157763731Y-64928702D02*
X157611350Y-64928702D01*
X157611350Y-64928702D02*
X157550398Y-64890607D01*
X157245636Y-64700130D02*
X157245636Y-65233464D01*
X157245636Y-64776321D02*
X157215159Y-64738226D01*
X157215159Y-64738226D02*
X157154207Y-64700130D01*
X157154207Y-64700130D02*
X157062778Y-64700130D01*
X157062778Y-64700130D02*
X157001826Y-64738226D01*
X157001826Y-64738226D02*
X156971350Y-64814416D01*
X156971350Y-64814416D02*
X156971350Y-65233464D01*
X156422778Y-65195369D02*
X156483730Y-65233464D01*
X156483730Y-65233464D02*
X156605635Y-65233464D01*
X156605635Y-65233464D02*
X156666588Y-65195369D01*
X156666588Y-65195369D02*
X156697064Y-65119178D01*
X156697064Y-65119178D02*
X156697064Y-64814416D01*
X156697064Y-64814416D02*
X156666588Y-64738226D01*
X156666588Y-64738226D02*
X156605635Y-64700130D01*
X156605635Y-64700130D02*
X156483730Y-64700130D01*
X156483730Y-64700130D02*
X156422778Y-64738226D01*
X156422778Y-64738226D02*
X156392302Y-64814416D01*
X156392302Y-64814416D02*
X156392302Y-64890607D01*
X156392302Y-64890607D02*
X156697064Y-64966797D01*
X155417064Y-64814416D02*
X155325636Y-64852511D01*
X155325636Y-64852511D02*
X155295159Y-64890607D01*
X155295159Y-64890607D02*
X155264683Y-64966797D01*
X155264683Y-64966797D02*
X155264683Y-65081083D01*
X155264683Y-65081083D02*
X155295159Y-65157273D01*
X155295159Y-65157273D02*
X155325636Y-65195369D01*
X155325636Y-65195369D02*
X155386588Y-65233464D01*
X155386588Y-65233464D02*
X155630398Y-65233464D01*
X155630398Y-65233464D02*
X155630398Y-64433464D01*
X155630398Y-64433464D02*
X155417064Y-64433464D01*
X155417064Y-64433464D02*
X155356112Y-64471559D01*
X155356112Y-64471559D02*
X155325636Y-64509654D01*
X155325636Y-64509654D02*
X155295159Y-64585845D01*
X155295159Y-64585845D02*
X155295159Y-64662035D01*
X155295159Y-64662035D02*
X155325636Y-64738226D01*
X155325636Y-64738226D02*
X155356112Y-64776321D01*
X155356112Y-64776321D02*
X155417064Y-64814416D01*
X155417064Y-64814416D02*
X155630398Y-64814416D01*
X154716112Y-64700130D02*
X154716112Y-65233464D01*
X154990398Y-64700130D02*
X154990398Y-65119178D01*
X154990398Y-65119178D02*
X154959921Y-65195369D01*
X154959921Y-65195369D02*
X154898969Y-65233464D01*
X154898969Y-65233464D02*
X154807540Y-65233464D01*
X154807540Y-65233464D02*
X154746588Y-65195369D01*
X154746588Y-65195369D02*
X154716112Y-65157273D01*
X154502778Y-64700130D02*
X154258969Y-64700130D01*
X154411350Y-64433464D02*
X154411350Y-65119178D01*
X154411350Y-65119178D02*
X154380873Y-65195369D01*
X154380873Y-65195369D02*
X154319921Y-65233464D01*
X154319921Y-65233464D02*
X154258969Y-65233464D01*
X154137064Y-64700130D02*
X153893255Y-64700130D01*
X154045636Y-64433464D02*
X154045636Y-65119178D01*
X154045636Y-65119178D02*
X154015159Y-65195369D01*
X154015159Y-65195369D02*
X153954207Y-65233464D01*
X153954207Y-65233464D02*
X153893255Y-65233464D01*
X153588493Y-65233464D02*
X153649445Y-65195369D01*
X153649445Y-65195369D02*
X153679922Y-65157273D01*
X153679922Y-65157273D02*
X153710398Y-65081083D01*
X153710398Y-65081083D02*
X153710398Y-64852511D01*
X153710398Y-64852511D02*
X153679922Y-64776321D01*
X153679922Y-64776321D02*
X153649445Y-64738226D01*
X153649445Y-64738226D02*
X153588493Y-64700130D01*
X153588493Y-64700130D02*
X153497064Y-64700130D01*
X153497064Y-64700130D02*
X153436112Y-64738226D01*
X153436112Y-64738226D02*
X153405636Y-64776321D01*
X153405636Y-64776321D02*
X153375160Y-64852511D01*
X153375160Y-64852511D02*
X153375160Y-65081083D01*
X153375160Y-65081083D02*
X153405636Y-65157273D01*
X153405636Y-65157273D02*
X153436112Y-65195369D01*
X153436112Y-65195369D02*
X153497064Y-65233464D01*
X153497064Y-65233464D02*
X153588493Y-65233464D01*
X153100874Y-64700130D02*
X153100874Y-65233464D01*
X153100874Y-64776321D02*
X153070397Y-64738226D01*
X153070397Y-64738226D02*
X153009445Y-64700130D01*
X153009445Y-64700130D02*
X152918016Y-64700130D01*
X152918016Y-64700130D02*
X152857064Y-64738226D01*
X152857064Y-64738226D02*
X152826588Y-64814416D01*
X152826588Y-64814416D02*
X152826588Y-65233464D01*
X154015681Y-70355195D02*
X154015681Y-69555195D01*
X154015681Y-69555195D02*
X153863300Y-69555195D01*
X153863300Y-69555195D02*
X153771871Y-69593290D01*
X153771871Y-69593290D02*
X153710919Y-69669480D01*
X153710919Y-69669480D02*
X153680442Y-69745671D01*
X153680442Y-69745671D02*
X153649966Y-69898052D01*
X153649966Y-69898052D02*
X153649966Y-70012338D01*
X153649966Y-70012338D02*
X153680442Y-70164719D01*
X153680442Y-70164719D02*
X153710919Y-70240909D01*
X153710919Y-70240909D02*
X153771871Y-70317100D01*
X153771871Y-70317100D02*
X153863300Y-70355195D01*
X153863300Y-70355195D02*
X154015681Y-70355195D01*
X153040442Y-70355195D02*
X153406157Y-70355195D01*
X153223300Y-70355195D02*
X153223300Y-69555195D01*
X153223300Y-69555195D02*
X153284252Y-69669480D01*
X153284252Y-69669480D02*
X153345204Y-69745671D01*
X153345204Y-69745671D02*
X153406157Y-69783766D01*
D11*
X164633645Y-70494653D02*
X163833645Y-70494653D01*
X163833645Y-70494653D02*
X163833645Y-70685129D01*
X163833645Y-70685129D02*
X163871740Y-70732748D01*
X163871740Y-70732748D02*
X163909835Y-70756558D01*
X163909835Y-70756558D02*
X163986026Y-70780367D01*
X163986026Y-70780367D02*
X164100311Y-70780367D01*
X164100311Y-70780367D02*
X164176502Y-70756558D01*
X164176502Y-70756558D02*
X164214597Y-70732748D01*
X164214597Y-70732748D02*
X164252692Y-70685129D01*
X164252692Y-70685129D02*
X164252692Y-70494653D01*
X163833645Y-70947034D02*
X164633645Y-71066082D01*
X164633645Y-71066082D02*
X164062216Y-71161320D01*
X164062216Y-71161320D02*
X164633645Y-71256558D01*
X164633645Y-71256558D02*
X163833645Y-71375606D01*
X164633645Y-71851796D02*
X164252692Y-71685130D01*
X164633645Y-71566082D02*
X163833645Y-71566082D01*
X163833645Y-71566082D02*
X163833645Y-71756558D01*
X163833645Y-71756558D02*
X163871740Y-71804177D01*
X163871740Y-71804177D02*
X163909835Y-71827987D01*
X163909835Y-71827987D02*
X163986026Y-71851796D01*
X163986026Y-71851796D02*
X164100311Y-71851796D01*
X164100311Y-71851796D02*
X164176502Y-71827987D01*
X164176502Y-71827987D02*
X164214597Y-71804177D01*
X164214597Y-71804177D02*
X164252692Y-71756558D01*
X164252692Y-71756558D02*
X164252692Y-71566082D01*
X164709835Y-71947035D02*
X164709835Y-72327987D01*
X164214597Y-72613701D02*
X164252692Y-72685129D01*
X164252692Y-72685129D02*
X164290788Y-72708939D01*
X164290788Y-72708939D02*
X164366978Y-72732748D01*
X164366978Y-72732748D02*
X164481264Y-72732748D01*
X164481264Y-72732748D02*
X164557454Y-72708939D01*
X164557454Y-72708939D02*
X164595550Y-72685129D01*
X164595550Y-72685129D02*
X164633645Y-72637510D01*
X164633645Y-72637510D02*
X164633645Y-72447034D01*
X164633645Y-72447034D02*
X163833645Y-72447034D01*
X163833645Y-72447034D02*
X163833645Y-72613701D01*
X163833645Y-72613701D02*
X163871740Y-72661320D01*
X163871740Y-72661320D02*
X163909835Y-72685129D01*
X163909835Y-72685129D02*
X163986026Y-72708939D01*
X163986026Y-72708939D02*
X164062216Y-72708939D01*
X164062216Y-72708939D02*
X164138407Y-72685129D01*
X164138407Y-72685129D02*
X164176502Y-72661320D01*
X164176502Y-72661320D02*
X164214597Y-72613701D01*
X164214597Y-72613701D02*
X164214597Y-72447034D01*
X163833645Y-72875606D02*
X163833645Y-73161320D01*
X164633645Y-73018463D02*
X163833645Y-73018463D01*
X164633645Y-73327986D02*
X163833645Y-73327986D01*
X163833645Y-73327986D02*
X164633645Y-73613700D01*
X164633645Y-73613700D02*
X163833645Y-73613700D01*
D10*
X148653448Y-70440863D02*
X148653448Y-69440863D01*
X148653448Y-69440863D02*
X148415353Y-69440863D01*
X148415353Y-69440863D02*
X148272496Y-69488482D01*
X148272496Y-69488482D02*
X148177258Y-69583720D01*
X148177258Y-69583720D02*
X148129639Y-69678958D01*
X148129639Y-69678958D02*
X148082020Y-69869434D01*
X148082020Y-69869434D02*
X148082020Y-70012291D01*
X148082020Y-70012291D02*
X148129639Y-70202767D01*
X148129639Y-70202767D02*
X148177258Y-70298005D01*
X148177258Y-70298005D02*
X148272496Y-70393244D01*
X148272496Y-70393244D02*
X148415353Y-70440863D01*
X148415353Y-70440863D02*
X148653448Y-70440863D01*
X147224877Y-69774196D02*
X147224877Y-70440863D01*
X147462972Y-69393244D02*
X147701067Y-70107529D01*
X147701067Y-70107529D02*
X147082020Y-70107529D01*
D11*
X156321428Y-71863595D02*
X156559523Y-71863595D01*
X156559523Y-71863595D02*
X156559523Y-71063595D01*
X156154761Y-71444547D02*
X155988094Y-71444547D01*
X155916666Y-71863595D02*
X156154761Y-71863595D01*
X156154761Y-71863595D02*
X156154761Y-71063595D01*
X156154761Y-71063595D02*
X155916666Y-71063595D01*
X155702380Y-71863595D02*
X155702380Y-71063595D01*
X155702380Y-71063595D02*
X155583332Y-71063595D01*
X155583332Y-71063595D02*
X155511904Y-71101690D01*
X155511904Y-71101690D02*
X155464285Y-71177880D01*
X155464285Y-71177880D02*
X155440475Y-71254071D01*
X155440475Y-71254071D02*
X155416666Y-71406452D01*
X155416666Y-71406452D02*
X155416666Y-71520738D01*
X155416666Y-71520738D02*
X155440475Y-71673119D01*
X155440475Y-71673119D02*
X155464285Y-71749309D01*
X155464285Y-71749309D02*
X155511904Y-71825500D01*
X155511904Y-71825500D02*
X155583332Y-71863595D01*
X155583332Y-71863595D02*
X155702380Y-71863595D01*
D12*
X151833333Y-73457419D02*
X151833333Y-74171704D01*
X151833333Y-74171704D02*
X151880952Y-74314561D01*
X151880952Y-74314561D02*
X151976190Y-74409800D01*
X151976190Y-74409800D02*
X152119047Y-74457419D01*
X152119047Y-74457419D02*
X152214285Y-74457419D01*
X150928571Y-73790752D02*
X150928571Y-74457419D01*
X151166666Y-73409800D02*
X151404761Y-74124085D01*
X151404761Y-74124085D02*
X150785714Y-74124085D01*
D13*
%TO.C,D2*%
X149390000Y-69040000D02*
X149390000Y-70350000D01*
X149390000Y-69040000D02*
X150610000Y-69040000D01*
X150610000Y-69040000D02*
X150610000Y-70350000D01*
%TO.C,D3*%
X143190000Y-69390000D02*
X144500000Y-69390000D01*
X143190000Y-70610000D02*
X143190000Y-69390000D01*
X143190000Y-70610000D02*
X144500000Y-70610000D01*
D14*
%TO.C,G\u002A\u002A\u002A*%
G36*
X159658157Y-76437846D02*
G01*
X159658157Y-77173328D01*
X159544209Y-77173328D01*
X159430261Y-77173328D01*
X159430261Y-76437846D01*
X159430261Y-75702365D01*
X159544209Y-75702365D01*
X159658157Y-75702365D01*
X159658157Y-76437846D01*
G37*
G36*
X159599691Y-75314192D02*
G01*
X159642962Y-75348893D01*
X159658157Y-75412316D01*
X159652440Y-75452303D01*
X159633296Y-75491044D01*
X159619044Y-75501954D01*
X159567767Y-75512795D01*
X159512774Y-75497993D01*
X159468900Y-75463663D01*
X159450979Y-75415916D01*
X159451023Y-75413728D01*
X159470187Y-75365560D01*
X159513204Y-75325477D01*
X159563994Y-75308727D01*
X159599691Y-75314192D01*
G37*
G36*
X163238534Y-76455563D02*
G01*
X163239366Y-76467413D01*
X163239661Y-76525650D01*
X163234005Y-76564332D01*
X163227337Y-76572181D01*
X163203961Y-76580784D01*
X163159630Y-76586806D01*
X163089228Y-76590631D01*
X162987637Y-76592644D01*
X162849740Y-76593230D01*
X162476565Y-76593230D01*
X162464193Y-76543939D01*
X162457850Y-76498371D01*
X162458619Y-76435170D01*
X162465416Y-76375693D01*
X162848695Y-76375693D01*
X163231974Y-76375693D01*
X163238534Y-76455563D01*
G37*
G36*
X156573021Y-75699167D02*
G01*
X156590988Y-75730358D01*
X156623144Y-75792036D01*
X156667174Y-75879385D01*
X156720761Y-75987587D01*
X156781587Y-76111825D01*
X156847336Y-76247281D01*
X156915690Y-76389140D01*
X156984334Y-76532582D01*
X157050950Y-76672792D01*
X157113221Y-76804951D01*
X157168831Y-76924244D01*
X157215463Y-77025852D01*
X157250800Y-77104959D01*
X157272525Y-77156747D01*
X157263723Y-77164328D01*
X157223847Y-77169667D01*
X157161788Y-77169244D01*
X157043780Y-77162969D01*
X156813768Y-76657228D01*
X156754674Y-76528378D01*
X156689803Y-76390607D01*
X156639272Y-76288484D01*
X156602288Y-76220480D01*
X156578054Y-76185067D01*
X156565777Y-76180719D01*
X156556576Y-76198786D01*
X156531715Y-76251226D01*
X156494400Y-76331674D01*
X156447147Y-76434669D01*
X156392468Y-76554751D01*
X156332880Y-76686460D01*
X156117961Y-77162969D01*
X156002741Y-77169182D01*
X155954538Y-77170719D01*
X155906227Y-77169145D01*
X155887521Y-77163886D01*
X155887535Y-77163714D01*
X155896632Y-77140819D01*
X155920977Y-77085621D01*
X155958252Y-77003106D01*
X156006139Y-76898258D01*
X156062319Y-76776060D01*
X156124473Y-76641497D01*
X156190283Y-76499552D01*
X156257430Y-76355211D01*
X156323596Y-76213458D01*
X156386463Y-76079276D01*
X156443712Y-75957649D01*
X156493024Y-75853563D01*
X156532082Y-75772000D01*
X156558566Y-75717946D01*
X156570157Y-75696384D01*
X156573021Y-75699167D01*
G37*
G36*
X161595269Y-75816313D02*
G01*
X161595269Y-75919902D01*
X161274144Y-75930261D01*
X161147082Y-75935711D01*
X161030963Y-75944210D01*
X160949719Y-75954792D01*
X160906618Y-75967131D01*
X160878739Y-75987500D01*
X160829656Y-76054965D01*
X160802847Y-76141491D01*
X160801135Y-76234461D01*
X160827345Y-76321257D01*
X160850204Y-76361763D01*
X160875481Y-76392211D01*
X160909315Y-76413681D01*
X160958280Y-76428094D01*
X161028953Y-76437371D01*
X161127906Y-76443435D01*
X161261716Y-76448205D01*
X161595269Y-76458564D01*
X161600938Y-76815946D01*
X161606607Y-77173328D01*
X161492170Y-77173328D01*
X161377733Y-77173328D01*
X161377733Y-76924714D01*
X161377733Y-76676101D01*
X161265423Y-76676101D01*
X161153113Y-76676101D01*
X160982848Y-76916113D01*
X160960894Y-76946846D01*
X160899659Y-77030279D01*
X160846933Y-77098874D01*
X160807739Y-77146219D01*
X160787101Y-77165903D01*
X160772090Y-77168851D01*
X160721949Y-77171187D01*
X160656162Y-77169325D01*
X160550706Y-77162969D01*
X160725965Y-76920820D01*
X160799046Y-76818691D01*
X160851956Y-76741212D01*
X160883937Y-76688282D01*
X160897201Y-76655687D01*
X160893964Y-76639219D01*
X160876440Y-76634665D01*
X160861214Y-76632437D01*
X160808230Y-76605721D01*
X160747342Y-76555942D01*
X160688594Y-76492153D01*
X160642029Y-76423405D01*
X160622273Y-76382514D01*
X160587492Y-76258750D01*
X160583422Y-76131516D01*
X160608561Y-76009995D01*
X160661411Y-75903370D01*
X160740470Y-75820824D01*
X160760855Y-75806147D01*
X160817007Y-75770780D01*
X160874141Y-75745515D01*
X160940341Y-75728713D01*
X161023686Y-75718739D01*
X161132260Y-75713955D01*
X161274144Y-75712724D01*
X161595269Y-75712724D01*
X161595269Y-75816313D01*
G37*
G36*
X163261168Y-75699654D02*
G01*
X163416171Y-75728622D01*
X163553980Y-75790464D01*
X163683454Y-75888489D01*
X163748639Y-75954297D01*
X163840306Y-76084125D01*
X163896934Y-76230105D01*
X163921755Y-76399165D01*
X163922737Y-76479023D01*
X163898350Y-76654498D01*
X163837720Y-76811161D01*
X163742331Y-76946652D01*
X163613665Y-77058610D01*
X163453207Y-77144675D01*
X163390749Y-77166711D01*
X163230195Y-77194033D01*
X163065992Y-77183912D01*
X162905824Y-77137333D01*
X162757374Y-77055283D01*
X162732673Y-77035937D01*
X162663574Y-76967133D01*
X162596129Y-76882860D01*
X162540637Y-76796821D01*
X162507398Y-76722716D01*
X162502325Y-76699962D01*
X162509659Y-76683891D01*
X162540524Y-76677546D01*
X162603865Y-76676658D01*
X162658748Y-76678034D01*
X162702358Y-76687012D01*
X162732548Y-76711543D01*
X162764887Y-76759651D01*
X162778812Y-76780936D01*
X162866759Y-76875679D01*
X162972880Y-76939242D01*
X163090799Y-76972711D01*
X163214141Y-76977172D01*
X163336529Y-76953710D01*
X163451587Y-76903409D01*
X163552939Y-76827357D01*
X163634209Y-76726637D01*
X163689021Y-76602335D01*
X163697751Y-76569313D01*
X163714067Y-76420465D01*
X163690305Y-76281742D01*
X163626857Y-76154481D01*
X163524115Y-76040019D01*
X163437639Y-75977651D01*
X163309427Y-75924694D01*
X163175572Y-75908458D01*
X163042899Y-75928596D01*
X162918232Y-75984757D01*
X162808396Y-76076594D01*
X162731629Y-76160576D01*
X162634779Y-76136189D01*
X162602589Y-76126741D01*
X162556251Y-76106605D01*
X162538130Y-76088364D01*
X162538713Y-76083932D01*
X162557361Y-76046705D01*
X162596144Y-75992876D01*
X162646770Y-75932462D01*
X162700949Y-75875478D01*
X162750388Y-75831942D01*
X162779132Y-75811068D01*
X162896264Y-75745294D01*
X163021868Y-75708595D01*
X163169821Y-75696490D01*
X163261168Y-75699654D01*
G37*
G36*
X158862124Y-75788484D02*
G01*
X158868885Y-75810365D01*
X158843430Y-75850138D01*
X158787295Y-75904602D01*
X158735577Y-75952367D01*
X158687663Y-76010667D01*
X158654764Y-76076095D01*
X158633942Y-76157196D01*
X158622260Y-76262515D01*
X158616780Y-76400596D01*
X158616520Y-76412467D01*
X158613024Y-76524525D01*
X158607466Y-76605322D01*
X158598468Y-76664192D01*
X158584650Y-76710470D01*
X158564633Y-76753490D01*
X158550829Y-76777372D01*
X158507985Y-76835811D01*
X158466618Y-76875000D01*
X158441900Y-76894658D01*
X158420624Y-76933534D01*
X158415090Y-76996398D01*
X158405545Y-77071207D01*
X158373654Y-77121533D01*
X158361014Y-77134673D01*
X158343261Y-77168326D01*
X158334541Y-77220301D01*
X158332219Y-77302068D01*
X158330197Y-77371637D01*
X158323113Y-77420746D01*
X158311501Y-77432300D01*
X158301753Y-77410741D01*
X158293825Y-77358387D01*
X158290783Y-77288269D01*
X158287943Y-77210621D01*
X158278125Y-77164713D01*
X158259707Y-77145118D01*
X158246020Y-77133381D01*
X158235586Y-77101241D01*
X158230176Y-77042349D01*
X158228630Y-76949408D01*
X158229157Y-76867030D01*
X158232325Y-76808999D01*
X158240415Y-76774895D01*
X158255704Y-76755601D01*
X158280472Y-76742002D01*
X158300972Y-76730835D01*
X158361417Y-76669874D01*
X158400859Y-76581452D01*
X158415013Y-76474102D01*
X158416469Y-76432505D01*
X158426221Y-76380587D01*
X158443803Y-76364645D01*
X158467641Y-76387276D01*
X158475726Y-76410628D01*
X158480844Y-76471094D01*
X158477129Y-76545683D01*
X158465701Y-76618383D01*
X158447676Y-76673183D01*
X158446843Y-76674768D01*
X158405959Y-76730790D01*
X158353249Y-76779467D01*
X158322452Y-76803798D01*
X158301479Y-76833540D01*
X158292612Y-76877222D01*
X158290783Y-76948569D01*
X158294344Y-77012724D01*
X158306287Y-77058031D01*
X158322751Y-77065297D01*
X158339660Y-77033630D01*
X158352937Y-76962141D01*
X158358762Y-76923846D01*
X158382436Y-76863067D01*
X158430571Y-76811750D01*
X158451249Y-76792495D01*
X158501423Y-76720308D01*
X158534554Y-76623006D01*
X158551862Y-76495889D01*
X158554566Y-76334257D01*
X158553242Y-76245364D01*
X158555539Y-76173769D01*
X158563768Y-76120536D01*
X158579928Y-76073478D01*
X158606016Y-76020408D01*
X158635535Y-75972012D01*
X158688905Y-75903657D01*
X158747548Y-75843805D01*
X158802432Y-75801363D01*
X158844525Y-75785236D01*
X158862124Y-75788484D01*
G37*
G36*
X157548888Y-75786867D02*
G01*
X157587337Y-75808062D01*
X157638596Y-75846338D01*
X157690686Y-75892210D01*
X157731625Y-75936196D01*
X157767572Y-75986496D01*
X157803691Y-76057645D01*
X157825736Y-76139195D01*
X157836161Y-76241307D01*
X157837421Y-76374145D01*
X157836638Y-76476935D01*
X157839420Y-76551310D01*
X157847449Y-76606889D01*
X157862383Y-76655050D01*
X157885876Y-76707171D01*
X157909976Y-76750355D01*
X157951982Y-76807712D01*
X157990119Y-76841706D01*
X157995517Y-76844674D01*
X158025291Y-76868847D01*
X158038914Y-76905766D01*
X158042170Y-76969651D01*
X158043915Y-77018942D01*
X158053403Y-77058306D01*
X158073247Y-77069739D01*
X158091899Y-77059615D01*
X158101570Y-77023960D01*
X158104323Y-76954961D01*
X158103371Y-76905343D01*
X158094784Y-76853163D01*
X158070763Y-76811917D01*
X158023605Y-76763322D01*
X157961780Y-76689476D01*
X157919135Y-76598102D01*
X157913055Y-76571388D01*
X157905864Y-76498100D01*
X157910866Y-76431834D01*
X157926510Y-76383833D01*
X157951246Y-76365334D01*
X157951748Y-76365340D01*
X157968434Y-76377705D01*
X157977366Y-76418142D01*
X157980017Y-76493192D01*
X157980034Y-76507733D01*
X157982488Y-76574296D01*
X157994100Y-76619214D01*
X158021982Y-76659053D01*
X158073247Y-76710380D01*
X158166477Y-76799710D01*
X158166477Y-76967741D01*
X158166326Y-77009900D01*
X158164151Y-77078070D01*
X158157689Y-77117717D01*
X158144799Y-77137742D01*
X158123339Y-77147052D01*
X158102735Y-77154778D01*
X158089688Y-77172903D01*
X158087621Y-77210643D01*
X158094168Y-77278673D01*
X158098424Y-77331605D01*
X158098006Y-77391809D01*
X158090882Y-77426015D01*
X158089930Y-77427322D01*
X158079101Y-77419803D01*
X158068127Y-77375239D01*
X158058033Y-77297634D01*
X158049215Y-77229209D01*
X158032125Y-77155725D01*
X158011228Y-77119249D01*
X158009775Y-77118113D01*
X157988036Y-77077662D01*
X157980017Y-77009848D01*
X157976116Y-76956571D01*
X157955760Y-76909335D01*
X157909240Y-76861305D01*
X157867930Y-76818690D01*
X157823427Y-76746199D01*
X157794033Y-76653732D01*
X157777815Y-76534491D01*
X157772839Y-76381673D01*
X157772155Y-76293507D01*
X157768468Y-76214095D01*
X157759965Y-76155468D01*
X157744854Y-76106274D01*
X157721346Y-76055163D01*
X157701346Y-76020225D01*
X157649915Y-75950398D01*
X157597040Y-75898010D01*
X157562995Y-75868102D01*
X157531417Y-75827825D01*
X157522625Y-75797323D01*
X157540918Y-75785236D01*
X157548888Y-75786867D01*
G37*
D15*
%TO.C,J3*%
X137740000Y-65684200D02*
X137740000Y-68424200D01*
X137740000Y-68424200D02*
X160800000Y-68424200D01*
X160800000Y-65684200D02*
X137740000Y-65684200D01*
X160800000Y-68424200D02*
X160800000Y-65684200D01*
X160470000Y-67954200D02*
G75*
G02*
X160270000Y-67954200I-100000J0D01*
G01*
X160270000Y-67954200D02*
G75*
G02*
X160470000Y-67954200I100000J0D01*
G01*
%TO.C,D1*%
X157000000Y-70000000D02*
G75*
G02*
X156800000Y-70000000I-100000J0D01*
G01*
X156800000Y-70000000D02*
G75*
G02*
X157000000Y-70000000I100000J0D01*
G01*
D12*
%TO.C,J5*%
X161782300Y-65314800D02*
X162282300Y-65814800D01*
X161782300Y-66314800D02*
X161782300Y-65314800D01*
X162282300Y-65814800D02*
X161782300Y-66314800D01*
D13*
%TO.C,D4*%
X145340000Y-69390000D02*
X146650000Y-69390000D01*
X145340000Y-70610000D02*
X145340000Y-69390000D01*
X145340000Y-70610000D02*
X146650000Y-70610000D01*
D12*
%TO.C,J2*%
X158500000Y-70500000D02*
X159500000Y-70500000D01*
X159000000Y-71000000D02*
X158500000Y-70500000D01*
X159500000Y-70500000D02*
X159000000Y-71000000D01*
%TO.C,J4*%
X151500000Y-72500000D02*
X152000000Y-72000000D01*
X152000000Y-72000000D02*
X152000000Y-73000000D01*
X152000000Y-73000000D02*
X151500000Y-72500000D01*
%TD*%
M02*
