M48
; DRILL file {KiCad 9.0.4-9.0.4-0~ubuntu22.04.1} date 2025-10-27T10:58:52+0530
; FORMAT={-:-/ absolute / metric / decimal}
; #@! TF.CreationDate,2025-10-27T10:58:52+05:30
; #@! TF.GenerationSoftware,Kicad,Pcbnew,9.0.4-9.0.4-0~ubuntu22.04.1
; #@! TF.FileFunction,Plated,1,2,PTH
FMAT,2
METRIC
; #@! TA.AperFunction,Plated,PTH,ViaDrill
T1C0.300
; #@! TA.AperFunction,Plated,PTH,ComponentDrill
T2C1.000
; #@! TA.AperFunction,Plated,PTH,ComponentDrill
T3C1.100
%
G90
G05
T1
X135.361Y-64.81
X135.5Y-73.0
X136.0Y-83.0
X137.0Y-75.4
X138.5Y-69.6
X141.125Y-65.7
X141.148Y-73.106
X142.5Y-72.5
X142.833Y-63.959
X143.212Y-63.203
X145.5Y-74.0
X146.013Y-64.249
X148.75Y-72.014
X150.0Y-70.2
X150.0Y-72.5
X151.599Y-64.869
X152.0Y-71.5
X152.826Y-75.9
X152.943Y-65.094
X154.571Y-69.16
X155.0Y-71.5
T2
X131.23Y-65.294
X131.23Y-67.834
X131.23Y-70.374
X131.23Y-72.914
X131.23Y-75.454
X131.23Y-77.994
X131.23Y-80.534
X131.23Y-83.074
X131.23Y-85.614
X131.23Y-88.154
X131.23Y-90.694
X131.23Y-93.234
X131.23Y-95.774
X131.23Y-98.314
X131.23Y-100.854
X131.23Y-103.394
X131.23Y-105.934
X131.23Y-108.474
X131.23Y-111.014
X131.23Y-113.554
X133.77Y-65.294
X133.77Y-67.834
X133.77Y-70.374
X133.77Y-72.914
X133.77Y-75.454
X133.77Y-77.994
X133.77Y-80.534
X133.77Y-83.074
X133.77Y-85.614
X133.77Y-88.154
X133.77Y-90.694
X133.77Y-93.234
X133.77Y-95.774
X133.77Y-98.314
X133.77Y-100.854
X133.77Y-103.394
X133.77Y-105.934
X133.77Y-108.474
X133.77Y-111.014
X133.77Y-113.554
T3
X139.11Y-67.054
X141.65Y-67.054
X144.19Y-67.054
X146.73Y-67.054
X149.27Y-67.054
X151.81Y-67.054
X154.35Y-67.054
X156.89Y-67.054
X159.43Y-67.054
M30
