%TF.GenerationSoftware,KiCad,Pcbnew,9.0.4-9.0.4-0~ubuntu22.04.1*%
%TF.CreationDate,2025-10-27T10:58:52+05:30*%
%TF.ProjectId,Pin_Socket,50696e5f-536f-4636-9b65-742e6b696361,rev?*%
%TF.SameCoordinates,Original*%
%TF.FileFunction,Copper,L1,Top*%
%TF.FilePolarity,Positive*%
%FSLAX46Y46*%
G04 Gerber Fmt 4.6, Leading zero omitted, Abs format (unit mm)*
G04 Created by KiCad (PCBNEW 9.0.4-9.0.4-0~ubuntu22.04.1) date 2025-10-27 10:58:52*
%MOMM*%
%LPD*%
G01*
G04 APERTURE LIST*
%TA.AperFunction,ComponentPad*%
%ADD10R,1.700000X1.700000*%
%TD*%
%TA.AperFunction,ComponentPad*%
%ADD11C,1.700000*%
%TD*%
%TA.AperFunction,SMDPad,CuDef*%
%ADD12R,0.250000X0.500000*%
%TD*%
%TA.AperFunction,ComponentPad*%
%ADD13C,1.650000*%
%TD*%
%TA.AperFunction,ViaPad*%
%ADD14C,0.600000*%
%TD*%
%TA.AperFunction,Conductor*%
%ADD15C,0.200000*%
%TD*%
G04 APERTURE END LIST*
D10*
%TO.P,J1,1,Pin_1*%
%TO.N,3v3 power_1*%
X133770000Y-65294200D03*
D11*
%TO.P,J1,2,Pin_2*%
%TO.N,5V_Power*%
X131230000Y-65294200D03*
%TO.P,J1,3,Pin_3*%
%TO.N,SDA*%
X133770000Y-67834200D03*
%TO.P,J1,4,Pin_4*%
%TO.N,5V_Power*%
X131230000Y-67834200D03*
%TO.P,J1,5,Pin_5*%
%TO.N,SCL*%
X133770000Y-70374200D03*
%TO.P,J1,6,Pin_6*%
%TO.N,GND*%
X131230000Y-70374200D03*
%TO.P,J1,7,Pin_7*%
%TO.N,unconnected-(J1-Pin_7-Pad7)*%
X133770000Y-72914200D03*
%TO.P,J1,8,Pin_8*%
%TO.N,unconnected-(J1-Pin_8-Pad8)*%
X131230000Y-72914200D03*
%TO.P,J1,9,Pin_9*%
%TO.N,GND*%
X133770000Y-75454200D03*
%TO.P,J1,10,Pin_10*%
%TO.N,unconnected-(J1-Pin_10-Pad10)*%
X131230000Y-75454200D03*
%TO.P,J1,11,Pin_11*%
%TO.N,M5_ZOOM_OUT*%
X133770000Y-77994200D03*
%TO.P,J1,12,Pin_12*%
%TO.N,unconnected-(J1-Pin_12-Pad12)*%
X131230000Y-77994200D03*
%TO.P,J1,13,Pin_13*%
%TO.N,M4_ZOOM_IN*%
X133770000Y-80534200D03*
%TO.P,J1,14,Pin_14*%
%TO.N,GND*%
X131230000Y-80534200D03*
%TO.P,J1,15,Pin_15*%
%TO.N,M2_LED_OFF*%
X133770000Y-83074200D03*
%TO.P,J1,16,Pin_16*%
%TO.N,M9_PWR_IND*%
X131230000Y-83074200D03*
%TO.P,J1,17,Pin_17*%
%TO.N,unconnected-(J1-Pin_17-Pad17)*%
X133770000Y-85614200D03*
%TO.P,J1,18,Pin_18*%
%TO.N,M1_WIFI_IND*%
X131230000Y-85614200D03*
%TO.P,J1,19,Pin_19*%
%TO.N,unconnected-(J1-Pin_19-Pad19)*%
X133770000Y-88154200D03*
%TO.P,J1,20,Pin_20*%
%TO.N,GND*%
X131230000Y-88154200D03*
%TO.P,J1,21,Pin_21*%
%TO.N,unconnected-(J1-Pin_21-Pad21)*%
X133770000Y-90694200D03*
%TO.P,J1,22,Pin_22*%
%TO.N,M8_LED_ON*%
X131230000Y-90694200D03*
%TO.P,J1,23,Pin_23*%
%TO.N,unconnected-(J1-Pin_23-Pad23)*%
X133770000Y-93234200D03*
%TO.P,J1,24,Pin_24*%
%TO.N,unconnected-(J1-Pin_24-Pad24)*%
X131230000Y-93234200D03*
%TO.P,J1,25,Pin_25*%
%TO.N,GND*%
X133770000Y-95774200D03*
%TO.P,J1,26,Pin_26*%
%TO.N,unconnected-(J1-Pin_26-Pad26)*%
X131230000Y-95774200D03*
%TO.P,J1,27,Pin_27*%
%TO.N,unconnected-(J1-Pin_27-Pad27)*%
X133770000Y-98314200D03*
%TO.P,J1,28,Pin_28*%
%TO.N,unconnected-(J1-Pin_28-Pad28)*%
X131230000Y-98314200D03*
%TO.P,J1,29,Pin_29*%
%TO.N,unconnected-(J1-Pin_29-Pad29)*%
X133770000Y-100854200D03*
%TO.P,J1,30,Pin_30*%
%TO.N,GND*%
X131230000Y-100854200D03*
%TO.P,J1,31,Pin_31*%
%TO.N,unconnected-(J1-Pin_31-Pad31)*%
X133770000Y-103394200D03*
%TO.P,J1,32,Pin_32*%
%TO.N,PWM0*%
X131230000Y-103394200D03*
%TO.P,J1,33,Pin_33*%
%TO.N,unconnected-(J1-Pin_33-Pad33)*%
X133770000Y-105934200D03*
%TO.P,J1,34,Pin_34*%
%TO.N,GND*%
X131230000Y-105934200D03*
%TO.P,J1,35,Pin_35*%
%TO.N,unconnected-(J1-Pin_35-Pad35)*%
X133770000Y-108474200D03*
%TO.P,J1,36,Pin_36*%
%TO.N,unconnected-(J1-Pin_36-Pad36)*%
X131230000Y-108474200D03*
%TO.P,J1,37,Pin_37*%
%TO.N,unconnected-(J1-Pin_37-Pad37)*%
X133770000Y-111014200D03*
%TO.P,J1,38,Pin_38*%
%TO.N,unconnected-(J1-Pin_38-Pad38)*%
X131230000Y-111014200D03*
%TO.P,J1,39,Pin_39*%
%TO.N,GND*%
X133770000Y-113554200D03*
%TO.P,J1,40,Pin_40*%
%TO.N,unconnected-(J1-Pin_40-Pad40)*%
X131230000Y-113554200D03*
%TD*%
D12*
%TO.P,IC1,1,LINE-1*%
%TO.N,M1_WIFI_IND*%
X147199800Y-65191100D03*
%TO.P,IC1,2,LINE-3*%
%TO.N,M3_PWR_BTN*%
X148099800Y-65191100D03*
%TO.P,IC1,3,GND*%
%TO.N,GND*%
X148899800Y-65191100D03*
%TO.P,IC1,4,LINE-6*%
%TO.N,M8_LED_ON*%
X149699800Y-65191100D03*
%TO.P,IC1,5,LINE-8*%
%TO.N,unconnected-(IC1-LINE-8-Pad5)*%
X150599800Y-65191100D03*
%TO.P,IC1,6,LINE-7*%
%TO.N,M9_PWR_IND*%
X150199800Y-64391100D03*
%TO.P,IC1,7,LINE-5*%
%TO.N,M5_ZOOM_OUT*%
X149299800Y-64391100D03*
%TO.P,IC1,8,LINE-4*%
%TO.N,M4_ZOOM_IN*%
X148499800Y-64391100D03*
%TO.P,IC1,9,LINE-2*%
%TO.N,M2_LED_OFF*%
X147599800Y-64391100D03*
%TD*%
D13*
%TO.P,J3,1*%
%TO.N,M1_WIFI_IND*%
X159430000Y-67054200D03*
%TO.P,J3,2*%
%TO.N,M2_LED_OFF*%
X156890000Y-67054200D03*
%TO.P,J3,3*%
%TO.N,M3_PWR_BTN*%
X154350000Y-67054200D03*
%TO.P,J3,4*%
%TO.N,M4_ZOOM_IN*%
X151810000Y-67054200D03*
%TO.P,J3,5*%
%TO.N,M5_ZOOM_OUT*%
X149270000Y-67054200D03*
%TO.P,J3,6*%
%TO.N,unconnected-(J3-Pad6)*%
X146730000Y-67054200D03*
%TO.P,J3,7*%
%TO.N,GND*%
X144190000Y-67054200D03*
%TO.P,J3,8*%
%TO.N,M8_LED_ON*%
X141650000Y-67054200D03*
%TO.P,J3,9*%
%TO.N,M9_PWR_IND*%
X139110000Y-67054200D03*
%TD*%
D14*
%TO.N,5V_Power*%
X135360500Y-64810100D03*
X155000000Y-71500000D03*
X154570700Y-69159800D03*
%TO.N,PWM0*%
X136000000Y-83000000D03*
%TO.N,GND*%
X152000000Y-71500000D03*
X145500000Y-74000000D03*
X150000000Y-70200000D03*
%TO.N,M5_ZOOM_OUT*%
X152943200Y-65094100D03*
%TO.N,M4_ZOOM_IN*%
X148750000Y-72013600D03*
X137000000Y-75400000D03*
%TO.N,M9_PWR_IND*%
X141125300Y-65699800D03*
X135500000Y-73000000D03*
X151599300Y-64869000D03*
X142833200Y-63958800D03*
%TO.N,M1_WIFI_IND*%
X143211600Y-63203300D03*
%TO.N,M2_LED_OFF*%
X152826342Y-75900000D03*
X146012900Y-64248900D03*
%TO.N,SDA*%
X142500000Y-72500000D03*
X138500000Y-69600000D03*
%TO.N,3v3 power_1*%
X141148004Y-73106378D03*
X150000000Y-72500000D03*
%TD*%
D15*
%TO.N,5V_Power*%
X135360500Y-64810100D02*
X135360500Y-65891700D01*
X132500000Y-66564200D02*
X131230000Y-67834200D01*
X131230000Y-65294200D02*
X131230000Y-67834200D01*
X135360500Y-65891700D02*
X134688000Y-66564200D01*
X134688000Y-66564200D02*
X132500000Y-66564200D01*
X154570700Y-71070700D02*
X154570700Y-69159800D01*
X155000000Y-71500000D02*
X154570700Y-71070700D01*
%TO.N,PWM0*%
X136000000Y-100265100D02*
X134140900Y-102124200D01*
X134140900Y-102124200D02*
X132500000Y-102124200D01*
X132500000Y-102124200D02*
X131230000Y-103394200D01*
X136000000Y-83000000D02*
X136000000Y-100265100D01*
%TO.N,GND*%
X145316000Y-65928200D02*
X144190000Y-67054200D01*
X135224000Y-74000000D02*
X145500000Y-74000000D01*
X148163000Y-65928200D02*
X145316000Y-65928200D01*
X131230000Y-88154200D02*
X132381700Y-88154200D01*
X132381700Y-81685900D02*
X132381700Y-88154200D01*
X132500200Y-74184400D02*
X133770000Y-75454200D01*
X152000000Y-71500000D02*
X151300000Y-71500000D01*
X132500200Y-71644400D02*
X132500200Y-74184400D01*
X148899900Y-65191200D02*
X148163000Y-65928200D01*
X132518800Y-76705400D02*
X133770000Y-75454200D01*
X133770000Y-95774200D02*
X132500000Y-97044200D01*
X132500000Y-97044200D02*
X132500000Y-99584200D01*
X131230000Y-80534200D02*
X132381700Y-81685900D01*
X133770000Y-75454200D02*
X135224000Y-74000000D01*
X148900000Y-65191100D02*
X148899900Y-65191200D01*
X148899800Y-65191100D02*
X148899900Y-65191200D01*
X132381700Y-88154200D02*
X132381700Y-94385900D01*
X132518800Y-79245400D02*
X132518800Y-76705400D01*
X132381700Y-94385900D02*
X133770000Y-95774200D01*
X131230000Y-70374200D02*
X132500200Y-71644400D01*
X151300000Y-71500000D02*
X150000000Y-70200000D01*
X131230000Y-80534200D02*
X132518800Y-79245400D01*
X132500000Y-99584200D02*
X131230000Y-100854200D01*
%TO.N,M5_ZOOM_OUT*%
X152704200Y-64855100D02*
X152943200Y-65094100D01*
X149299800Y-64391100D02*
X149299800Y-63839400D01*
X152943200Y-65094100D02*
X152704200Y-64855100D01*
X151688500Y-63839400D02*
X152943200Y-65094100D01*
X149299800Y-63839400D02*
X151688500Y-63839400D01*
%TO.N,M4_ZOOM_IN*%
X148499800Y-64391100D02*
X148499800Y-63839400D01*
X151941400Y-67054200D02*
X153580000Y-65415600D01*
X136100000Y-76300000D02*
X136100000Y-77367600D01*
X153580000Y-65415600D02*
X153580000Y-64879800D01*
X137000000Y-75400000D02*
X136100000Y-76300000D01*
X152133300Y-63433100D02*
X148906100Y-63433100D01*
X151810000Y-67054200D02*
X151941400Y-67054200D01*
X133770000Y-79697600D02*
X133770000Y-80534200D01*
X148750100Y-70114100D02*
X151810000Y-67054200D01*
X148906100Y-63433100D02*
X148499800Y-63839400D01*
X136100000Y-77367600D02*
X133770000Y-79697600D01*
X148750000Y-72013600D02*
X148750100Y-72013600D01*
X148750100Y-72013600D02*
X148750100Y-70114100D01*
X153580000Y-64879800D02*
X152133300Y-63433100D01*
%TO.N,M3_PWR_BTN*%
X152299700Y-63031400D02*
X148728500Y-63031400D01*
X154350000Y-67054200D02*
X154350000Y-65081700D01*
X154350000Y-65081700D02*
X152299700Y-63031400D01*
X148049800Y-63710100D02*
X148049800Y-65141100D01*
X148728500Y-63031400D02*
X148049800Y-63710100D01*
X148049800Y-65141100D02*
X148099800Y-65191100D01*
%TO.N,M9_PWR_IND*%
X150849900Y-65742800D02*
X150349800Y-65742800D01*
X141125300Y-65699800D02*
X141125300Y-65666700D01*
X150349800Y-65742800D02*
X150173100Y-65566100D01*
X150173100Y-65566100D02*
X150173100Y-64417800D01*
X141125300Y-65666700D02*
X142833200Y-63958800D01*
X151599300Y-64869000D02*
X151599300Y-64993400D01*
X135500000Y-70664200D02*
X135500000Y-73000000D01*
X151599300Y-64993400D02*
X150849900Y-65742800D01*
X139110000Y-67054200D02*
X135500000Y-70664200D01*
X150173100Y-64417800D02*
X150199800Y-64391100D01*
%TO.N,M8_LED_ON*%
X140496700Y-65922000D02*
X141628900Y-67054200D01*
X149699800Y-65742800D02*
X150436900Y-66479900D01*
X141628900Y-67054200D02*
X141650000Y-67054200D01*
X149699800Y-65191100D02*
X149699800Y-65742800D01*
X150436900Y-67491300D02*
X149737000Y-68191200D01*
X130078300Y-89542500D02*
X130078300Y-69842000D01*
X149737000Y-68191200D02*
X142787000Y-68191200D01*
X142787000Y-68191200D02*
X141650000Y-67054200D01*
X131230000Y-90694200D02*
X130078300Y-89542500D01*
X130078300Y-69842000D02*
X130816100Y-69104200D01*
X134166300Y-69104200D02*
X137348500Y-65922000D01*
X150436900Y-66479900D02*
X150436900Y-67491300D01*
X137348500Y-65922000D02*
X140496700Y-65922000D01*
X130816100Y-69104200D02*
X134166300Y-69104200D01*
%TO.N,M1_WIFI_IND*%
X143211600Y-63203300D02*
X145199400Y-65191100D01*
X145199400Y-65191100D02*
X147199800Y-65191100D01*
%TO.N,M2_LED_OFF*%
X147599800Y-63839400D02*
X146422400Y-63839400D01*
X152926342Y-76000000D02*
X155329600Y-76000000D01*
X155329600Y-76000000D02*
X156890000Y-74439600D01*
X156890000Y-74439600D02*
X156890000Y-67054200D01*
X147599800Y-64391100D02*
X147599800Y-63839400D01*
X152826342Y-75900000D02*
X152926342Y-76000000D01*
X146422400Y-63839400D02*
X146012900Y-64248900D01*
%TO.N,SDA*%
X139600000Y-69600000D02*
X142500000Y-72500000D01*
X138500000Y-69600000D02*
X139600000Y-69600000D01*
%TO.N,3v3 power_1*%
X149393622Y-73106378D02*
X150000000Y-72500000D01*
X141148004Y-73106378D02*
X149393622Y-73106378D01*
%TD*%
M02*
